<?xml version="1.0" encoding="utf-8"?>
<!-- Generator: Adobe Illustrator 16.0.4, SVG Export Plug-In . SVG Version: 6.00 Build 0)  -->
<!DOCTYPE svg PUBLIC "-//W3C//DTD SVG 1.1//EN" "http://www.w3.org/Graphics/SVG/1.1/DTD/svg11.dtd">
<svg version="1.1" id="Warstwa_1" xmlns="http://www.w3.org/2000/svg" xmlns:xlink="http://www.w3.org/1999/xlink" x="0px" y="0px"
	 width="800px" height="800px" viewBox="0 0 800 800" enable-background="new 0 0 800 800" xml:space="preserve">
<g>
	<g>
		<path fill="#FFFFFF" d="M71.099,575.652c0-23.448,17.898-40.55,42.024-40.55c12.234,0,22.882,4.188,30.133,12.347l-7.364,7.133
			c-6.115-6.458-13.593-9.398-22.316-9.398c-17.9,0-31.148,12.91-31.148,30.469s13.249,30.47,31.148,30.47
			c8.723,0,16.201-3.056,22.316-9.511l7.364,7.132c-7.251,8.161-17.899,12.461-30.245,12.461
			C88.997,616.204,71.099,599.098,71.099,575.652z"/>
		<path fill="#FFFFFF" d="M149.829,585.278c0-17.891,13.253-30.579,31.263-30.579c18.014,0,31.152,12.688,31.152,30.579
			c0,17.901-13.138,30.702-31.152,30.702C163.082,615.98,149.829,603.18,149.829,585.278z M201.258,585.278
			c0-12.797-8.609-21.064-20.166-21.064c-11.552,0-20.277,8.268-20.277,21.064c0,12.808,8.725,21.183,20.277,21.183
			C192.648,606.461,201.258,598.086,201.258,585.278z"/>
		<path fill="#FFFFFF" d="M284.291,580.749v34.548h-10.874v-33.303c0-11.78-5.892-17.558-16.201-17.558
			c-11.553,0-19.028,6.908-19.028,19.941v30.919h-10.876v-60.035h10.419v9.062c4.421-6.116,12.124-9.625,21.637-9.625
			C273.98,554.699,284.291,563.08,284.291,580.749z"/>
		<path fill="#FFFFFF" d="M317.369,545.862v27.639h39.763v9.739h-39.763v32.057h-11.327v-79.289h55.96v9.854H317.369z"/>
		<path fill="#FFFFFF" d="M407.539,555.034v10.535c-0.901-0.11-1.7-0.11-2.49-0.11c-11.668,0-18.917,7.137-18.917,20.272v29.909
			h-10.876v-60.038h10.424v10.082C389.529,558.666,397.003,555.034,407.539,555.034z"/>
		<path fill="#FFFFFF" d="M414.789,585.278c0-17.891,13.257-30.579,31.267-30.579c18.012,0,31.15,12.688,31.15,30.579
			c0,17.901-13.139,30.702-31.15,30.702C428.046,615.98,414.789,603.18,414.789,585.278z M466.22,585.278
			c0-12.797-8.608-21.064-20.164-21.064c-11.554,0-20.278,8.268-20.278,21.064c0,12.808,8.725,21.183,20.278,21.183
			C457.611,606.461,466.22,598.086,466.22,585.278z"/>
		<path fill="#FFFFFF" d="M549.252,580.749v34.548h-10.875v-33.303c0-11.78-5.89-17.558-16.198-17.558
			c-11.555,0-19.028,6.908-19.028,19.941v30.919h-10.877v-60.035h10.423v9.062c4.418-6.116,12.119-9.625,21.638-9.625
			C538.939,554.699,549.252,563.08,549.252,580.749z"/>
		<path fill="#FFFFFF" d="M603.175,611.788c-3.282,2.833-8.271,4.192-13.142,4.192c-12.124,0-19.031-6.685-19.031-18.802v-32.965
			h-10.191v-8.952h10.191v-13.14h10.875v13.14H599.1v8.952h-17.223v32.508c0,6.458,3.4,10.085,9.398,10.085
			c3.177,0,6.232-1.022,8.503-2.837L603.175,611.788z"/>
		<path fill="#FFFFFF" d="M604.989,604.764l6.567-7.7c4.306,6.116,9.856,9.397,16.538,9.397c8.951,0,13.594-5.434,13.594-16.083
			v-44.516h-28.657v-9.854H652.9v53.804c0,17.672-8.604,26.393-24.806,26.393C618.693,616.204,610.083,612.127,604.989,604.764z"/>
		<path fill="#FFFFFF" d="M668.762,606.235l4.193-8.835c5.886,5.324,15.967,9.176,26.165,9.176c13.708,0,19.598-5.322,19.598-12.233
			c0-19.371-48.033-7.134-48.033-36.585c0-12.239,9.517-22.655,30.365-22.655c9.286,0,18.913,2.49,25.486,7.02l-3.741,9.064
			c-6.908-4.421-14.726-6.462-21.745-6.462c-13.483,0-19.257,5.668-19.257,12.577c0,19.371,48.024,7.252,48.024,36.362
			c0,12.12-9.741,22.54-30.697,22.54C686.998,616.204,675.105,612.127,668.762,606.235z"/>
	</g>
	<g>
		<path fill="#FFFFFF" d="M518.565,502.051"/>
		<path fill="#17E9E0" d="M604.713,405.146c0,65.802-53.342,119.146-119.148,119.146c-65.805,0-119.15-53.345-119.15-119.146
			c0-65.807,53.345-119.148,119.15-119.148C551.371,285.997,604.713,339.338,604.713,405.146z"/>
		<path fill="#A64AC9" d="M497.209,348.707c0,83.116-67.38,150.503-150.503,150.503c-83.118,0-150.502-67.387-150.502-150.503
			c0-83.122,67.384-150.503,150.502-150.503C429.829,198.204,497.209,265.585,497.209,348.707z"/>
		<path fill="#5E99D3" d="M497.322,348.707c0-22.369-4.916-43.579-13.673-62.661c-64.865,1.085-117.124,53.971-117.124,119.1
			c0,32.74,13.214,62.39,34.589,83.925C457.393,467.284,497.322,412.675,497.322,348.707z"/>
		<polygon fill="#A64AC9" points="271.658,478.303 213.618,494.656 227.914,434.22 		"/>
		<polygon fill="#17E9E0" points="547.331,505.752 597.076,519.768 584.823,467.969 		"/>
	</g>
</g>
</svg>
