<?xml version="1.0" encoding="utf-8"?>
<!-- Generator: Adobe Illustrator 22.0.1, SVG Export Plug-In . SVG Version: 6.00 Build 0)  -->
<svg version="1.1" id="Layer_1" xmlns="http://www.w3.org/2000/svg" xmlns:xlink="http://www.w3.org/1999/xlink" x="0px" y="0px"
	 viewBox="0 0 1500 500" style="enable-background:new 0 0 1500 500;" xml:space="preserve">
<style type="text/css">
	.st0{fill:#FFFFFF;}
	.st1{fill-rule:evenodd;clip-rule:evenodd;fill:#FFFFFF;}
</style>
<g>
	<g>
		<path class="st0" d="M518.9,191.2l12,2.4c1.3,0.2,2.2,1.3,2.2,2.6v106.6c0,1.5-1.2,2.7-2.7,2.7h-12c-1.5,0-2.7-1.2-2.7-2.7v-109
			C515.7,192.1,517.3,190.9,518.9,191.2z"/>
		<path class="st0" d="M621,256.3v46.5c0,1.5-1.2,2.7-2.7,2.7h-11.6c-1.5,0-2.7-1.2-2.7-2.7v-48c0-11.3-7.1-17.9-16.5-17.9
			c-10.8,0-17.9,8-17.9,19.1v46.7c0,1.5-1.2,2.7-2.7,2.7h-11.7c-1.5,0-2.7-1.2-2.7-2.7v-76.5c0-1.5,1.2-2.7,2.7-2.7h11.4
			c1.5,0,2.7,1.2,2.7,2.7v8c3.6-6.4,12.1-12.7,23-12.7C613.6,221.6,621,238.4,621,256.3z"/>
		<path class="st0" d="M640.6,284.5c1.2-0.9,2.8-0.7,3.7,0.4c3.7,4.6,9.2,8.5,18,8.5c7.2,0,12.5-3.6,12.5-10.2
			c0-15.7-39.8-10-39.8-38.4c0-14.4,12.2-23.2,28.1-23.2c13.6,0,21.5,7,25.4,12.9c0.8,1.2,0.4,2.8-0.8,3.7l-7.5,5
			c-1.2,0.8-2.7,0.6-3.6-0.5c-2.6-3.4-6.9-7.1-14.5-7.1c-6.3,0-11,3.3-11,8.9c0,15.7,40,9.1,40,37.9c0,15.2-12.9,25.1-29.6,25.1
			c-15.1,0-23.7-7.3-28.2-14.2c-0.8-1.2-0.5-2.7,0.6-3.6L640.6,284.5z"/>
		<path class="st0" d="M710.3,207.2l11.6,2.3c1.2,0.3,2.1,1.4,2.1,2.6v11.5H738c1.5,0,2.7,1.2,2.7,2.7v8.8c0,1.5-1.2,2.7-2.7,2.7
			H724v38.1c0,12.7,4.9,15.5,14,15.5c0.5,0,1.1,0,1.6,0c1.7,0,1.7,2.2,1.7,2.2v10.1c0,1.4-1,2.5-2.4,2.7c-1.4,0.1-3.4,0.3-5.9,0.3
			c-19.9,0-25.9-13.3-25.9-33.4v-35.4h-6.4c-1.5,0-2.7-1.2-2.7-2.7v-8.8c0-1.5,1.2-2.7,2.7-2.7h6.4v-13.8
			C707.1,208.2,708.6,206.9,710.3,207.2z"/>
		<path class="st0" d="M782.6,253.3c9.4,0,16.5,3.1,19.6,6v-7.7c0-9.4-6.6-15-17.4-15c-8,0-15,2.4-20.6,5.2
			c-1.3,0.6-2.8,0.1-3.5-1.1l-4.1-7.4c-0.7-1.3-0.3-2.9,1-3.6c6.7-3.9,16.8-8,29-8c24.3,0,32.6,13.2,32.6,31v50.2
			c0,1.5-1.2,2.7-2.7,2.7h-10.1c-1.2,0-2.3-0.9-2.6-2.1l-0.9-4c-4.2,4.7-10.8,8.2-21,8.2c-17.2,0-30.9-10.8-30.9-27.3
			C750.9,264.4,763.8,253.3,782.6,253.3z M785.4,293.9c10,0,17.2-5.6,17.2-14.1c0-8.6-7.1-14.1-17.4-14.1c-10.3,0-17.2,6-17.2,14.1
			C768,287.9,775.1,293.9,785.4,293.9z"/>
		<path class="st0" d="M838.7,224.4l10.8,2.3c1.2,0.3,2.1,1.4,2.1,2.6v5.2c2.2-3,10.5-12.9,26.3-12.9c23.4,0,40,17.9,40,42.8
			c0,25.4-15.5,43.1-38.9,43.1c-15.5,0-24.3-9.4-26.5-12.9v42c0,1.5-1.2,2.7-2.7,2.7h-11.7c-1.5,0-2.7-1.2-2.7-2.7V227
			C835.5,225.3,837.1,224,838.7,224.4z M876.4,292.3c14.3,0,24.3-11.4,24.3-27.9c0-16.8-10.5-27.6-24.5-27.6
			c-15,0-24.3,12.5-24.3,27.6C852,282.1,862.8,292.3,876.4,292.3z"/>
		<path class="st0" d="M959.9,253.3c9.4,0,16.5,3.1,19.6,6v-7.7c0-9.4-6.6-15-17.4-15c-8,0-15,2.4-20.6,5.2
			c-1.3,0.6-2.8,0.1-3.5-1.1l-4.1-7.4c-0.7-1.3-0.3-2.9,1-3.6c6.7-3.9,16.8-8,29-8c24.3,0,32.6,13.2,32.6,31v50.2
			c0,1.5-1.2,2.7-2.7,2.7h-10.1c-1.2,0-2.3-0.9-2.6-2.1l-0.9-4c-4.2,4.7-10.8,8.2-21,8.2c-17.2,0-30.9-10.8-30.9-27.3
			C928.2,264.4,941.1,253.3,959.9,253.3z M962.7,293.9c10,0,17.2-5.6,17.2-14.1c0-8.6-7.1-14.1-17.4-14.1s-17.2,6-17.2,14.1
			C945.3,287.9,952.4,293.9,962.7,293.9z"/>
		<path class="st0" d="M1025,321.1c0.6-1.4,2.2-2.1,3.6-1.4c4.3,2,12.3,5,21.5,5c13.6,0,25.7-8.9,25.7-24.4v-5.5
			c-1.9,2.7-10,12.7-26.2,12.7c-23.5,0-39.2-17.7-39.2-42.8c0-25.2,16.3-43.1,39.5-43.1c15.4,0,24.1,9.2,26.6,13V227
			c0-1.7,1.6-3,3.2-2.6l10.8,2.3c1.2,0.3,2.1,1.4,2.1,2.6v65.4c0,30.7-18.7,44.8-42.5,44.8c-9.9,0-20.2-2.9-27.4-6.6
			c-1.3-0.6-1.8-2.1-1.3-3.4L1025,321.1z M1051.9,236.8c-14.1,0-24.3,11.3-24.3,27.7c0,16.8,10.5,27.7,24.5,27.7
			c14.7,0,24.3-11.6,24.3-27.7C1076.3,247.8,1066,236.8,1051.9,236.8z"/>
		<path class="st0" d="M1144.6,221.6c24.8,0,39.3,17.1,39.3,42.8c0,0.5,0,1.1,0,1.6c0,1.4-1.2,2.6-2.7,2.6h-59.1
			c0.3,14.6,10.8,24,25.4,24c10.6,0,17.3-5.1,21-9.4c0.9-1.1,2.5-1.3,3.7-0.5l7.2,5.4c1.2,0.9,1.4,2.5,0.6,3.7
			c-4.8,6.7-15.3,15.7-32.8,15.7c-25.6,0-42.5-17.9-42.5-42.6C1104.8,239.5,1122.2,221.6,1144.6,221.6z M1166.5,256.9
			c-0.6-13.5-10-21-21.8-21c-11.8,0-20.8,8.2-21.9,21H1166.5z"/>
		<path class="st0" d="M355.1,321.2v-144c0-1.3-1-2.5-2.3-2.6l-8.6-1.1c-1.6-0.2-3.1,1-3.1,2.6v146.4c0,1.6,1.5,2.9,3.1,2.7l8.6-1.3
			C354.2,323.6,355.1,322.5,355.1,321.2z"/>
		<path class="st0" d="M330,307.7V190.1c0-1.4-1-2.5-2.4-2.7l-8.6-0.9c-1.6-0.2-3,1.1-3,2.7v119.5c0,1.6,1.4,2.8,3,2.7l8.6-1
			C329,310.2,330,309,330,307.7z"/>
		<path class="st1" d="M480.4,178.3l-110.9-18.2c-1.6-0.3-3.1,1-3.1,2.6v174.4c0,1.7,1.5,2.9,3.1,2.6l110.9-19.6
			c1.3-0.2,2.2-1.3,2.2-2.6V181C482.6,179.7,481.7,178.5,480.4,178.3z M468.6,305.1c0,1.3-1,2.5-2.3,2.7l-78.3,11.2
			c-1.6,0.2-3.1-1-3.1-2.7V185.5c0-1.6,1.4-2.9,3-2.7l78.3,9.8c1.3,0.2,2.3,1.3,2.3,2.7V305.1z"/>
	</g>
</g>
</svg>
